<?xml version="1.0" encoding="UTF-8"?>
<svg version="1.1" xmlns="http://www.w3.org/2000/svg" width="128" height="128">
<path d="M0 0 C1.2265536 1.04141344 2.43572804 2.10370671 3.625 3.1875 C4.21667969 3.66574219 4.80835937 4.14398438 5.41796875 4.63671875 C16.68874201 14.51419554 20.97686612 31.88233799 22.625 46.1875 C22.74512812 50.52652786 22.66976367 54.84542394 22.625 59.1875 C16.685 59.1875 10.745 59.1875 4.625 59.1875 C4.625 70.7375 4.625 82.2875 4.625 94.1875 C-23.425 94.1875 -51.475 94.1875 -80.375 94.1875 C-80.375 85.9375 -80.375 77.6875 -80.375 69.1875 C-77.9 67.82625 -75.425 66.465 -72.875 65.0625 C-65.27022232 60.85640602 -57.74847619 56.51742277 -50.25 52.125 C-43.18427902 47.9897882 -36.11928599 43.85503069 -29 39.8125 C-28.34628418 39.43730225 -27.69256836 39.06210449 -27.01904297 38.67553711 C-22.60987848 36.1875 -22.60987848 36.1875 -20.375 36.1875 C-20.54 34.929375 -20.705 33.67125 -20.875 32.375 C-21.19658241 29.92293415 -21.375 27.67099306 -21.375 25.1875 C-22.06948242 24.80005615 -22.76396484 24.4126123 -23.47949219 24.01342773 C-26.69532183 22.21846541 -29.91016351 20.42174044 -33.125 18.625 C-34.21683594 18.01591797 -35.30867188 17.40683594 -36.43359375 16.77929688 C-43.79631441 12.6622726 -51.10364516 8.46365519 -58.375 4.1875 C-56.71499705 0.54359108 -55.45199871 -0.671859 -51.8125 -2.4375 C-51.00683594 -2.84226562 -50.20117188 -3.24703125 -49.37109375 -3.6640625 C-34.29875479 -9.44146492 -13.46242078 -9.54654553 0 0 Z M-12.375 27.1875 C-13.035 28.5075 -13.695 29.8275 -14.375 31.1875 C-13.14690909 32.83305699 -13.14690909 32.83305699 -11.375 34.1875 C-9.2272367 34.19228037 -9.2272367 34.19228037 -7.375 33.1875 C-7.045 32.1975 -6.715 31.2075 -6.375 30.1875 C-7.035 29.1975 -7.695 28.2075 -8.375 27.1875 C-9.695 27.1875 -11.015 27.1875 -12.375 27.1875 Z " fill="#000000" transform="translate(93.375,20.8125)"/>
<path d="M0 0 C2.5 0.25 2.5 0.25 4.5 2.25 C4.75 4.75 4.75 4.75 4.5 7.25 C2.5 9.25 2.5 9.25 0 9.5 C-2.5 9.25 -2.5 9.25 -4.5 7.25 C-4.75 4.75 -4.75 4.75 -4.5 2.25 C-2.5 0.25 -2.5 0.25 0 0 Z " fill="#000000" transform="translate(25.5,58.75)"/>
<path d="M0 0 C2.5 0.25 2.5 0.25 4.5 2.25 C4.75 4.75 4.75 4.75 4.5 7.25 C3.84 7.91 3.18 8.57 2.5 9.25 C-3.06818182 8.68181818 -3.06818182 8.68181818 -4.5 7.25 C-4.6875 4.8125 -4.6875 4.8125 -4.5 2.25 C-2.5 0.25 -2.5 0.25 0 0 Z " fill="#000000" transform="translate(66.5,46.75)"/>
<path d="M0 0 C4.55555556 0.55555556 4.55555556 0.55555556 6 2 C6.125 5 6.125 5 6 8 C5 9 5 9 2.0625 9.25 C1.051875 9.1675 0.04125 9.085 -1 9 C-3 6 -3 6 -2.75 3.9375 C-2 2 -2 2 0 0 Z " fill="#000000" transform="translate(34,65)"/>
<path d="M0 0 C1.2375 0.1546875 1.2375 0.1546875 2.5 0.3125 C4.5 3.3125 4.5 3.3125 4.1875 5.9375 C3.5 8.3125 3.5 8.3125 2.5 9.3125 C0.0625 9.5 0.0625 9.5 -2.5 9.3125 C-4.5 7.3125 -4.5 7.3125 -4.75 4.8125 C-4.40047575 1.3172575 -3.47557682 0.4344471 0 0 Z " fill="#000000" transform="translate(56.5,52.6875)"/>
<path d="M0 0 C2.5 0.25 2.5 0.25 4.5 2.25 C4.75 4.75 4.75 4.75 4.5 7.25 C3.84 7.91 3.18 8.57 2.5 9.25 C-0.625 8.875 -0.625 8.875 -3.5 8.25 C-4.125 5.375 -4.125 5.375 -4.5 2.25 C-2.5 0.25 -2.5 0.25 0 0 Z " fill="#000000" transform="translate(25.5,46.75)"/>
<path d="M0 0 C2.875 -0.125 2.875 -0.125 6 0 C6.66 0.66 7.32 1.32 8 2 C7.625 5.125 7.625 5.125 7 8 C4.6875 8.625 4.6875 8.625 2 9 C1.01 8.34 0.02 7.68 -1 7 C-0.67 4.69 -0.34 2.38 0 0 Z " fill="#000000" transform="translate(53,41)"/>
<path d="M0 0 C1 1 1 1 1.1875 3.4375 C1 6 1 6 -1 8 C-3.5 8.25 -3.5 8.25 -6 8 C-6.66 7.34 -7.32 6.68 -8 6 C-7.75 2.9375 -7.75 2.9375 -7 0 C-4.31633121 -1.3418344 -2.84719317 -0.73004953 0 0 Z " fill="#000000" transform="translate(29,72)"/>
<path d="M0 0 C2.5 -0.3125 2.5 -0.3125 5 0 C7 2 7 2 7.25 4.5 C7 7 7 7 5 9 C1.875 8.625 1.875 8.625 -1 8 C-1.625 5.6875 -1.625 5.6875 -2 3 C-1.34 2.01 -0.68 1.02 0 0 Z " fill="#000000" transform="translate(33,53)"/>
<path d="M0 0 C1.4540625 0.0309375 1.4540625 0.0309375 2.9375 0.0625 C4.125 2.3125 4.125 2.3125 4.9375 5.0625 C3.5625 7.375 3.5625 7.375 1.9375 9.0625 C-2.9375 8.1875 -2.9375 8.1875 -4.0625 7.0625 C-4.1875 4.0625 -4.1875 4.0625 -4.0625 1.0625 C-3.0625 0.0625 -3.0625 0.0625 0 0 Z " fill="#000000" transform="translate(46.0625,46.9375)"/>
<path d="M0 0 C3 0.125 3 0.125 4 1.125 C4.25 4.0625 4.25 4.0625 4 7.125 C1 9.125 1 9.125 -1.0625 8.875 C-3 8.125 -3 8.125 -5 6.125 C-4.27477017 0.17811542 -4.27477017 0.17811542 0 0 Z " fill="#000000" transform="translate(36,40.875)"/>
<path d="M0 0 C4.55555556 0.55555556 4.55555556 0.55555556 6 2 C6.125 5 6.125 5 6 8 C5 9 5 9 2.0625 9.25 C1.051875 9.1675 0.04125 9.085 -1 9 C-3 6 -3 6 -2.75 3.9375 C-2 2 -2 2 0 0 Z " fill="#000000" transform="translate(34,28)"/>
<path d="M0 0 C2.5 0.0625 2.5 0.0625 5 1 C6.4375 3.375 6.4375 3.375 7 6 C6.01 7.485 6.01 7.485 5 9 C2.69 8.67 0.38 8.34 -2 8 C-2.125 5.125 -2.125 5.125 -2 2 C-1.34 1.34 -0.68 0.68 0 0 Z " fill="#000000" transform="translate(44,59)"/>
<path d="M0 0 C1.4540625 0.0309375 1.4540625 0.0309375 2.9375 0.0625 C3.5975 1.7125 4.2575 3.3625 4.9375 5.0625 C3.6175 6.3825 2.2975 7.7025 0.9375 9.0625 C-1.5375 8.0725 -1.5375 8.0725 -4.0625 7.0625 C-4.10504356 5.06295254 -4.10330783 3.06208364 -4.0625 1.0625 C-3.0625 0.0625 -3.0625 0.0625 0 0 Z " fill="#000000" transform="translate(46.0625,34.9375)"/>
<path d="M0 0 C1.32 0.33 2.64 0.66 4 1 C4.6875 3.8125 4.6875 3.8125 5 7 C3.5625 8.875 3.5625 8.875 2 10 C-0.475 9.01 -0.475 9.01 -3 8 C-2.45276317 4.62537285 -1.9451 2.91765 0 0 Z " fill="#000000" transform="translate(25,34)"/>
<path d="M0 0 C1.67542976 0.28604898 3.34385343 0.61781233 5 1 C5.33 2.65 5.66 4.3 6 6 C4.1875 7.5625 4.1875 7.5625 2 9 C1.01 8.67 0.02 8.34 -1 8 C-1.04241723 5.66705225 -1.04092937 3.33297433 -1 1 C-0.67 0.67 -0.34 0.34 0 0 Z " fill="#000000" transform="translate(14,78)"/>
<path d="M0 0 C1.98 0.495 1.98 0.495 4 1 C4.625 3.875 4.625 3.875 5 7 C4.34 7.66 3.68 8.32 3 9 C1.68 9 0.36 9 -1 9 C-0.67 6.03 -0.34 3.06 0 0 Z " fill="#000000" transform="translate(15,65)"/>
<path d="M0 0 C0.66 0 1.32 0 2 0 C2.625 2.3125 2.625 2.3125 3 5 C2.01 6.485 2.01 6.485 1 8 C0.34 8 -0.32 8 -1 8 C-1.125 2.25 -1.125 2.25 0 0 Z " fill="#000000" transform="translate(17,54)"/>
</svg>
